<svg width="55" height="55" viewBox="0 0 55 55" fill="none" xmlns="http://www.w3.org/2000/svg">
<path d="M49.9537 27.4769C49.9537 39.8905 39.8905 49.9537 27.4769 49.9537C15.0632 49.9537 5 39.8905 5 27.4769C5 15.0632 15.0632 5 27.4769 5C39.8905 5 49.9537 15.0632 49.9537 27.4769Z" fill="#FF7A00"/>
<path d="M34.8648 21.1155C34.8648 25.0504 31.6557 28.2402 27.6972 28.2402C23.7386 28.2402 20.5295 25.0504 20.5295 21.1155C20.5295 17.1806 23.7386 13.9908 27.6972 13.9908C31.6557 13.9908 34.8648 17.1806 34.8648 21.1155Z" fill="white"/>
<path d="M39.9307 38.1254C39.9307 44.6836 34.4295 50 27.6434 50C20.8573 50 15.356 44.6836 15.356 38.1254C15.356 31.5673 20.8573 26.2509 27.6434 26.2509C34.4295 26.2509 39.9307 31.5673 39.9307 38.1254Z" fill="white"/>
<path d="M13.9907 40.1457H40.963V49.9537H13.9907V40.1457Z" fill="#FF7A00"/>
<path fill-rule="evenodd" clip-rule="evenodd" d="M54.9537 27.4769C54.9537 42.6519 42.6519 54.9537 27.4769 54.9537C12.3018 54.9537 0 42.6519 0 27.4769C0 12.3018 12.3018 0 27.4769 0C42.6519 0 54.9537 12.3018 54.9537 27.4769ZM27.4769 49.9537C39.8905 49.9537 49.9537 39.8905 49.9537 27.4769C49.9537 15.0632 39.8905 5 27.4769 5C15.0632 5 5 15.0632 5 27.4769C5 39.8905 15.0632 49.9537 27.4769 49.9537Z" fill="black"/>
</svg>
